<?xml version="1.0" encoding="UTF-8"?>
<svg width="12px" height="24px" viewBox="0 0 12 24" version="1.1" xmlns="http://www.w3.org/2000/svg" xmlns:xlink="http://www.w3.org/1999/xlink">
    <!-- Generator: Sketch 44.1 (41455) - http://www.bohemiancoding.com/sketch -->
    <title>facebook</title>
    <desc>Created with Sketch.</desc>
    <defs></defs>
    <g id="Branding-Assets" stroke="none" stroke-width="1" fill="none" fill-rule="evenodd">
        <g id="Article-Page-Copy" transform="translate(-606.000000, -5125.000000)" fill-rule="nonzero" fill="#80939D">
            <g id="Social-Icons" transform="translate(566.000000, 5125.000000)">
                <g id="facebook" transform="translate(40.000000, 0.000000)">
                    <path d="M11.4759184,7.70889796 L7.73142857,7.70889796 L7.73142857,5.25306122 C7.73142857,4.33077551 8.34269388,4.1157551 8.77322449,4.1157551 C9.20277551,4.1157551 11.4156735,4.1157551 11.4156735,4.1157551 L11.4156735,0.0612244898 L7.7764898,0.0470204082 C3.73665306,0.0470204082 2.81730612,3.07102041 2.81730612,5.00620408 L2.81730612,7.70889796 L0.480979592,7.70889796 L0.480979592,11.8868571 L2.81730612,11.8868571 C2.81730612,17.2486531 2.81730612,23.7090612 2.81730612,23.7090612 L7.73142857,23.7090612 C7.73142857,23.7090612 7.73142857,17.1849796 7.73142857,11.8868571 L11.0473469,11.8868571 L11.4759184,7.70889796 Z" id="Shape"></path>
                </g>
            </g>
        </g>
    </g>
</svg>