<?xml version="1.0" encoding="UTF-8"?>
<svg width="24px" height="24px" viewBox="0 0 24 24" version="1.1" xmlns="http://www.w3.org/2000/svg" xmlns:xlink="http://www.w3.org/1999/xlink">
    <!-- Generator: Sketch 44.1 (41455) - http://www.bohemiancoding.com/sketch -->
    <title>instagram</title>
    <desc>Created with Sketch.</desc>
    <defs></defs>
    <g id="Branding-Assets" stroke="none" stroke-width="1" fill="none" fill-rule="evenodd">
        <g id="Article-Page-Copy" transform="translate(-635.000000, -5125.000000)" fill-rule="nonzero" fill="#80939D">
            <g id="Social-Icons" transform="translate(566.000000, 5125.000000)">
                <g id="instagram" transform="translate(69.000000, 0.000000)">
                    <path d="M11.8588235,5.97647059 C8.56470588,5.97647059 5.83529412,8.65882353 5.83529412,12 C5.83529412,15.3411765 8.51764706,18.0235294 11.8588235,18.0235294 C15.2,18.0235294 17.8823529,15.2941176 17.8823529,12 C17.8823529,8.70588235 15.1529412,5.97647059 11.8588235,5.97647059 Z M11.8588235,15.8588235 C9.74117647,15.8588235 8,14.1176471 8,12 C8,9.88235294 9.74117647,8.14117647 11.8588235,8.14117647 C13.9764706,8.14117647 15.7176471,9.88235294 15.7176471,12 C15.7176471,14.1176471 13.9764706,15.8588235 11.8588235,15.8588235 Z" id="Shape"></path>
                    <circle id="Oval" cx="18.1176471" cy="5.83529412" r="1.36470588"></circle>
                    <path d="M21.6470588,2.30588235 C20.4235294,1.03529412 18.6823529,0.376470588 16.7058824,0.376470588 L7.01176471,0.376470588 C2.91764706,0.376470588 0.188235294,3.10588235 0.188235294,7.2 L0.188235294,16.8470588 C0.188235294,18.8705882 0.847058824,20.6117647 2.16470588,21.8823529 C3.43529412,23.1058824 5.12941176,23.7176471 7.05882353,23.7176471 L16.6588235,23.7176471 C18.6823529,23.7176471 20.3764706,23.0588235 21.6,21.8823529 C22.8705882,20.6588235 23.5294118,18.9176471 23.5294118,16.8941176 L23.5294118,7.2 C23.5294118,5.22352941 22.8705882,3.52941176 21.6470588,2.30588235 Z M21.3647059,16.8941176 C21.3647059,18.3529412 20.9411765,19.5294118 20.0941176,20.3294118 C19.2470588,21.1294118 18.0705882,21.5529412 16.6588235,21.5529412 L7.05882353,21.5529412 C5.64705882,21.5529412 4.47058824,21.1294118 3.62352941,20.3294118 C2.77647059,19.4823529 2.35294118,18.3058824 2.35294118,16.8470588 L2.35294118,7.2 C2.35294118,5.78823529 2.77647059,4.61176471 3.62352941,3.76470588 C4.42352941,2.96470588 5.64705882,2.54117647 7.05882353,2.54117647 L16.7529412,2.54117647 C18.1647059,2.54117647 19.3411765,2.96470588 20.1882353,3.81176471 C20.9882353,4.65882353 21.4588235,5.83529412 21.4588235,7.2 L21.4588235,16.8941176 L21.3647059,16.8941176 Z" id="Shape"></path>
                </g>
            </g>
        </g>
    </g>
</svg>