<?xml version="1.0" encoding="UTF-8"?>
<svg width="24px" height="24px" viewBox="0 0 24 24" version="1.1" xmlns="http://www.w3.org/2000/svg" xmlns:xlink="http://www.w3.org/1999/xlink">
    <!-- Generator: Sketch 44.1 (41455) - http://www.bohemiancoding.com/sketch -->
    <title>linkedin</title>
    <desc>Created with Sketch.</desc>
    <defs></defs>
    <g id="Branding-Assets" stroke="none" stroke-width="1" fill="none" fill-rule="evenodd">
        <g id="Article-Page-Copy" transform="translate(-769.000000, -5125.000000)" fill-rule="nonzero" fill="#80939D">
            <g id="Social-Icons" transform="translate(566.000000, 5125.000000)">
                <g id="linkedin" transform="translate(203.000000, 0.000000)">
                    <path d="M21.7717647,0.313882353 L1.95058824,0.313882353 C1.00188235,0.313882353 0.232470588,1.06494118 0.232470588,1.99058824 L0.232470588,22.0437647 C0.232470588,22.9689412 1.00188235,23.72 1.95058824,23.72 L21.7717647,23.72 C22.7218824,23.72 23.4912941,22.9684706 23.4912941,22.0437647 L23.4912941,1.99058824 C23.4912941,1.06447059 22.7214118,0.313882353 21.7717647,0.313882353 Z M7.28235294,19.9077647 L3.76941176,19.9077647 L3.76941176,9.33882353 L7.28235294,9.33882353 L7.28235294,19.9077647 Z M5.52611765,7.89505882 L5.50258824,7.89505882 C4.32423529,7.89505882 3.56188235,7.08329412 3.56188235,6.06917647 C3.56188235,5.03247059 4.34776471,4.24329412 5.54917647,4.24329412 C6.75105882,4.24329412 7.49035294,5.03247059 7.51388235,6.06917647 C7.51388235,7.08329412 6.75058824,7.89505882 5.52611765,7.89505882 Z M19.9501176,19.9077647 L16.4371765,19.9077647 L16.4371765,14.2522353 C16.4371765,12.832 15.9289412,11.8625882 14.6578824,11.8625882 C13.6875294,11.8625882 13.1096471,12.5162353 12.8550588,13.1477647 C12.7623529,13.3731765 12.7397647,13.6884706 12.7397647,14.0047059 L12.7397647,19.9072941 L9.22682353,19.9072941 C9.22682353,19.9072941 9.27294118,10.3289412 9.22682353,9.33835294 L12.7397647,9.33835294 L12.7397647,10.8343529 C13.2065882,10.1143529 14.0414118,9.08894118 15.9063529,9.08894118 C18.2174118,9.08894118 19.9505882,10.6 19.9505882,13.8465882 L19.9505882,19.9077647 L19.9501176,19.9077647 Z" id="Shape"></path>
                </g>
            </g>
        </g>
    </g>
</svg>