<?xml version="1.0" encoding="UTF-8"?>
<svg width="23px" height="23px" viewBox="0 0 23 23" version="1.1" xmlns="http://www.w3.org/2000/svg" xmlns:xlink="http://www.w3.org/1999/xlink">
    <!-- Generator: Sketch 44.1 (41455) - http://www.bohemiancoding.com/sketch -->
    <title>slack</title>
    <desc>Created with Sketch.</desc>
    <defs></defs>
    <g id="Branding-Assets" stroke="none" stroke-width="1" fill="none" fill-rule="evenodd">
        <g id="About-Page" transform="translate(-1073.000000, -1829.000000)" fill-rule="nonzero">
            <g id="Group-3" transform="translate(1060.000000, 1818.000000)">
                <g id="slack" transform="translate(13.000000, 11.000000)">
                    <path d="M2.01980405,12.1696599 C1.16600676,12.1762313 0.44275,11.6639728 0.176074324,10.864449 C0.166181322,10.8342539 0.156958309,10.8038404 0.148412162,10.7732313 C-0.142195946,9.74934014 0.421304054,8.67819728 1.43128378,8.33523129 L17.6307432,2.87108844 C17.82309,2.81506483 18.0221448,2.78579577 18.2223716,2.78409524 C19.0988581,2.77721088 19.8420068,3.30073469 20.1152095,4.11715646 L20.1394527,4.19601361 C20.4424932,5.26246259 19.6895541,6.21438095 18.7874257,6.51948299 C18.7868041,6.51995238 18.6226959,6.57580952 2.67779054,12.0568503 C2.46585289,12.1295903 2.24370922,12.1676761 2.01980405,12.1696599 Z" id="Shape" fill="#70CADB"></path>
                    <path d="M4.71997297,20.1907143 C3.85949324,20.1969728 3.13375,19.6919116 2.87018243,18.9038095 C2.86017759,18.8738295 2.85085086,18.8436244 2.84220946,18.8132177 C2.54756081,17.7771224 3.11043919,16.6947143 4.12383784,16.3512789 L20.3239189,10.837068 C20.53325,10.7666599 20.7494189,10.7306735 20.9668311,10.7286395 C21.8296419,10.722068 22.5877095,11.2527891 22.8551622,12.0498095 L22.880027,12.1327347 C23.0365203,12.6836395 22.9440541,13.3027619 22.6329324,13.7913946 C22.4010676,14.1547007 21.6697297,14.4745102 21.6697297,14.4745102 L5.40810811,20.072585 C5.18632431,20.1481774 4.95410352,20.1881474 4.71997297,20.1910272 L4.71997297,20.1907143 Z" id="Shape" fill="#E01765"></path>
                    <path d="M18.2054324,20.2256054 C17.3440138,20.233934 16.5751957,19.6829734 16.3009392,18.8607823 L10.8943851,2.69193878 L10.8673446,2.60119048 C10.5744054,1.57010204 11.13775,0.494578231 12.1474189,0.15192517 C12.3494459,0.0835510204 12.5583108,0.047877551 12.7685743,0.046 C13.0809392,0.0436530612 13.3832027,0.114530612 13.6679054,0.256129252 C14.1415728,0.491966072 14.5022807,0.908230803 14.6701149,1.41270068 L20.0762027,17.5801361 L20.0918986,17.6320816 C20.3955608,18.7025986 19.8334595,19.7787483 18.8237905,20.1214014 C18.6243531,20.1884838 18.4156964,20.2236461 18.2054324,20.2256054 L18.2054324,20.2256054 Z" id="Shape" fill="#E8A723"></path>
                    <path d="M10.1689527,22.9489932 C9.3070372,22.9572594 8.53785571,22.405821 8.26368243,21.5830748 L2.85852703,5.41485714 C2.68937953,4.91108602 2.72622808,4.36026259 2.96094526,3.88387772 C3.19566245,3.40749285 3.60896571,3.04468266 4.10969595,2.87546939 C4.30942911,2.80824663 4.51839845,2.7729791 4.72898649,2.77095238 C5.59054998,2.7623888 6.35958127,3.31341225 6.63379054,4.13577551 L12.0391014,20.304619 C12.2083299,20.8086336 12.1713603,21.3597349 11.936354,21.836262 C11.7013478,22.3127891 11.2876303,22.6755552 10.7865338,22.8444762 C10.5871888,22.9117346 10.3785636,22.9469532 10.1683311,22.9488367 L10.1689527,22.9488367 L10.1689527,22.9489932 Z" id="Shape" fill="#3EB890"></path>
                    <polygon id="Shape" fill="#CC2027" points="15.5400743 16.5844082 19.3098986 15.2867075 18.0775338 11.6020136 14.3033581 12.886102 15.5400743 16.5844082"></polygon>
                    <polygon id="Shape" fill="#361238" points="7.51602703 19.3465986 11.2855405 18.0490544 10.0438514 14.3361973 6.27060811 15.6207551 7.51602703 19.3465986"></polygon>
                    <polygon id="Shape" fill="#65863A" points="12.856223 8.5585034 16.6263581 7.26252381 15.4084459 3.62085714 11.6313176 4.89493197"></polygon>
                    <polygon id="Shape" fill="#1A937D" points="4.83124324 11.3169388 8.60137838 10.0209592 7.3685473 6.33282313 3.59141892 7.6067415 4.83124324 11.3169388"></polygon>
                </g>
            </g>
        </g>
    </g>
</svg>