<?xml version="1.0" encoding="UTF-8"?>
<svg width="120px" height="120px" viewBox="0 0 120 120" version="1.1" xmlns="http://www.w3.org/2000/svg" xmlns:xlink="http://www.w3.org/1999/xlink">
    <!-- Generator: Sketch 44.1 (41455) - http://www.bohemiancoding.com/sketch -->
    <title>slack-icon</title>
    <desc>Created with Sketch.</desc>
    <defs></defs>
    <g id="Branding-Assets" stroke="none" stroke-width="1" fill="none" fill-rule="evenodd">
        <g id="Article-Page-Copy-2" transform="translate(-660.000000, -176.000000)">
            <g id="slack-icon" transform="translate(720.292650, 236.292650) rotate(-5.000000) translate(-720.292650, -236.292650) translate(662.792650, 178.792650)">
                <rect id="Rectangle-6" fill="#E75050" x="0" y="0" width="115" height="115" rx="32"></rect>
                <g id="Group-Copy" transform="translate(38.000000, 38.000000)" fill="#FED545">
                    <path d="M38.9341923,19.0186451 C38.9341923,31.2240975 32.5273971,38.9827259 19.4117485,38.9827259 C5.96354178,38.9827259 0.0403337653,30.9552198 0.0403337653,19.3767859 L0.0403337653,13.5445703 L10.0736653,13.5445703 L10.043533,19.1380254 C10.043533,26.2104894 14.1837889,29.4929023 19.4723806,29.4929023 C25.6072499,29.4929023 29.022125,25.4346991 29.022125,19.3767859 L29.022125,13.8635224 L38.9643246,13.8635224 L38.9341923,19.0186451 Z" id="Fill-18"></path>
                    <path d="M10.5228943,5.14335672 C10.5228943,7.95986003 8.21078904,10.2429622 5.35850661,10.2429622 C2.50622417,10.2429622 0.194118898,7.95986003 0.194118898,5.14335672 C0.194118898,2.32685341 2.50622417,0.0437512705 5.35850661,0.0437512705 C8.21078904,0.0437512705 10.5228943,2.32685341 10.5228943,5.14335672" id="Fill-19"></path>
                    <path d="M38.9268797,5.14335672 C38.9268797,7.95986003 36.6147744,10.2429622 33.762492,10.2429622 C30.9102096,10.2429622 28.5981043,7.95986003 28.5981043,5.14335672 C28.5981043,2.32685341 30.9102096,0.0437512705 33.762492,0.0437512705 C36.6147744,0.0437512705 38.9268797,2.32685341 38.9268797,5.14335672" id="Fill-20"></path>
                </g>
            </g>
        </g>
    </g>
</svg>