<?xml version="1.0" encoding="UTF-8"?>
<svg width="21px" height="23px" viewBox="0 0 21 23" version="1.1" xmlns="http://www.w3.org/2000/svg" xmlns:xlink="http://www.w3.org/1999/xlink">
    <!-- Generator: Sketch 44.1 (41455) - http://www.bohemiancoding.com/sketch -->
    <title>twitch</title>
    <desc>Created with Sketch.</desc>
    <defs></defs>
    <g id="Branding-Assets" stroke="none" stroke-width="1" fill="none" fill-rule="evenodd">
        <g id="Article-Page-Copy" transform="translate(-852.000000, -5126.000000)" fill="#80939D">
            <g id="Social-Icons" transform="translate(566.000000, 5125.000000)">
                <g id="twitch" transform="translate(286.000000, 0.000000)">
                    <g id="g2993" transform="translate(10.453716, 12.242096) scale(-1, 1) rotate(-180.000000) translate(-10.453716, -12.242096) translate(0.018933, 0.502966)">
                        <g id="g2995" transform="translate(0.024164, 0.006898)">
                            <path d="M18.4237279,10.7798708 L15.1178616,7.50973714 L9.92490067,7.50973714 L7.09195826,4.70768938 L7.09195826,7.50973714 L2.84266573,7.50973714 L2.84266573,21.0550042 L18.4237279,21.0550042 L18.4237279,10.7798708 Z M0.953391713,22.9232756 L0.00923901163,19.1864932 L0.00923901163,2.37229024 L4.25901585,2.37229024 L4.25901585,0.0364120082 L6.61903438,0.0364120082 L8.98050582,2.37229024 L12.7571166,2.37229024 L20.3113068,9.84441761 L20.3113068,22.9232756 L0.953391713,22.9232756 Z" id="path2997"></path>
                        </g>
                        <path d="M8.06027217,11.7201363 L9.94881894,11.7201363 L9.94881894,17.3259089 L8.06027217,17.3259089 L8.06027217,11.7201363 Z M13.2534759,11.7201363 L15.1420229,11.7201363 L15.1420229,17.3259089 L13.2534759,17.3259089 L13.2534759,11.7201363 Z" id="path2999"></path>
                    </g>
                </g>
            </g>
        </g>
    </g>
</svg>