<?xml version="1.0" encoding="UTF-8"?>
<svg width="30px" height="24px" viewBox="0 0 30 24" version="1.1" xmlns="http://www.w3.org/2000/svg" xmlns:xlink="http://www.w3.org/1999/xlink">
    <!-- Generator: Sketch 44.1 (41455) - http://www.bohemiancoding.com/sketch -->
    <title>twitter</title>
    <desc>Created with Sketch.</desc>
    <defs></defs>
    <g id="Branding-Assets" stroke="none" stroke-width="1" fill="none" fill-rule="evenodd">
        <g id="Home-Page-Copy" transform="translate(-1067.000000, -865.000000)" fill-rule="nonzero" fill="#80939D">
            <g id="Social-Icons" transform="translate(972.000000, 865.000000)">
                <g id="twitter" transform="translate(95.000000, 0.000000)">
                    <path d="M29.3162927,3.2484878 C28.2559024,3.71953171 27.1154927,4.03738537 25.9181854,4.17998049 C27.140078,3.44827317 28.0778341,2.2889561 28.5197268,0.906731707 C27.3764488,1.58499512 26.1108293,2.07746341 24.7628488,2.34298537 C23.6839024,1.19315122 22.1461463,0.474556098 20.4446634,0.474556098 C17.1773854,0.474556098 14.5284293,3.12357073 14.5284293,6.39084878 C14.5284293,6.85445854 14.5807024,7.30577561 14.6816195,7.73877073 C9.76460488,7.49239024 5.40491707,5.13722927 2.48698537,1.55754146 C1.97789268,2.43102439 1.6860878,3.44716098 1.6860878,4.5318439 C1.6860878,6.5843122 2.73049756,8.39502439 4.31795122,9.45629268 C3.34840976,9.42515122 2.43576585,9.15933659 1.63832195,8.71598049 C1.63779512,8.74056585 1.63779512,8.7654439 1.63779512,8.79090732 C1.63779512,11.6568585 3.67715122,14.0480195 6.38388293,14.5919415 C5.88737561,14.7268683 5.3646439,14.7994537 4.82499512,14.7994537 C4.44339512,14.7994537 4.07297561,14.7625756 3.7116878,14.6931512 C4.46487805,17.0434537 6.64969756,18.7541268 9.23812683,18.8018341 C7.21334634,20.388761 4.66261463,21.3345366 1.89043902,21.3345366 C1.41313171,21.3345366 0.942380488,21.3062049 0.479356098,21.2519415 C3.09804878,22.9308293 6.2075122,23.9100878 9.5484878,23.9100878 C20.4309073,23.9100878 26.3812098,14.8949268 26.3812098,7.07678049 C26.3812098,6.82068293 26.3760585,6.56487805 26.3646439,6.3113561 C27.5202146,5.47732683 28.5237073,4.43525854 29.3162927,3.2484878 Z" id="Shape"></path>
                </g>
            </g>
        </g>
    </g>
</svg>