<?xml version="1.0" encoding="UTF-8"?>
<svg width="25px" height="24px" viewBox="0 0 25 24" version="1.1" xmlns="http://www.w3.org/2000/svg" xmlns:xlink="http://www.w3.org/1999/xlink">
    <!-- Generator: Sketch 44.1 (41455) - http://www.bohemiancoding.com/sketch -->
    <title>youtube</title>
    <desc>Created with Sketch.</desc>
    <defs></defs>
    <g id="Branding-Assets" stroke="none" stroke-width="1" fill="none" fill-rule="evenodd">
        <g id="Article-Page-Copy" transform="translate(-810.000000, -5125.000000)" fill-rule="nonzero" fill="#80939D">
            <g id="Social-Icons" transform="translate(566.000000, 5125.000000)">
                <g id="youtube" transform="translate(244.000000, 0.000000)">
                    <path d="M20.0380408,11.3681633 L4.79118367,11.3681633 C2.36767347,11.3681633 0.403102041,13.3346939 0.403102041,15.7577143 L0.403102041,19.2847347 C0.403102041,21.7077551 2.36767347,23.6737959 4.79118367,23.6737959 L20.0380408,23.6737959 C22.4610612,23.6737959 24.4261224,21.7077551 24.4261224,19.2847347 L24.4261224,15.7577143 C24.4261224,13.3346939 22.4610612,11.3681633 20.0380408,11.3681633 Z M7.99444898,14.1139592 L6.57697959,14.1139592 L6.57697959,21.1572245 L5.2075102,21.1572245 L5.2075102,14.1139592 L3.79102041,14.1139592 L3.79102041,12.9159184 L7.99444898,12.9159184 L7.99444898,14.1139592 L7.99444898,14.1139592 Z M11.9985306,21.1572245 L10.7838367,21.1572245 L10.7838367,20.491102 C10.5580408,20.7374694 10.3253878,20.925551 10.082449,21.0524082 C9.8395102,21.1846531 9.60489796,21.2463673 9.37665306,21.2463673 C9.09453061,21.2463673 8.88489796,21.1567347 8.74138776,20.9745306 C8.60032653,20.7928163 8.52832653,20.5234286 8.52832653,20.1595102 L8.52832653,15.076898 L9.74302041,15.076898 L9.74302041,19.7412245 C9.74302041,19.8852245 9.76995918,19.9885714 9.81844898,20.0527347 C9.87085714,20.1188571 9.95412245,20.1492245 10.0682449,20.1492245 C10.1564082,20.1492245 10.2700408,20.107102 10.4066939,20.0218776 C10.5443265,19.9356735 10.6697143,19.8279184 10.7838367,19.6946939 L10.7838367,15.0764082 L11.9985306,15.0764082 L11.9985306,21.1572245 L11.9985306,21.1572245 Z M16.4086531,19.9018776 C16.4086531,20.3314286 16.3131429,20.661551 16.1226122,20.8917551 C15.9330612,21.1219592 15.6558367,21.235102 15.2968163,21.235102 C15.0577959,21.235102 14.8452245,21.192 14.6605714,21.1028571 C14.4749388,21.0146939 14.3000816,20.8790204 14.140898,20.6909388 L14.140898,21.1567347 L12.9115102,21.1567347 L12.9115102,12.9159184 L14.140898,12.9159184 L14.140898,15.5701224 C14.3054694,15.386449 14.4793469,15.2439184 14.6610612,15.1484082 C14.8466939,15.0509388 15.0333061,15.0039184 15.2223673,15.0039184 C15.6068571,15.0039184 15.8997551,15.1322449 16.1025306,15.3913469 C16.3062857,15.650449 16.4076735,16.0300408 16.4076735,16.5276735 L16.4076735,19.9018776 L16.4086531,19.9018776 Z M20.6223673,18.2635102 L18.2977959,18.2635102 L18.2977959,19.4091429 C18.2977959,19.7284898 18.3369796,19.9508571 18.4163265,20.0747755 C18.4976327,20.1991837 18.6342857,20.2599184 18.8287347,20.2599184 C19.0305306,20.2599184 19.1701224,20.2075102 19.2514286,20.1026939 C19.3297959,19.996898 19.3719184,19.7666939 19.3719184,19.4091429 L19.3719184,19.1324082 L20.6223673,19.1324082 L20.6223673,19.4444082 C20.6223673,20.0674286 20.4710204,20.5371429 20.1639184,20.8540408 C19.8617143,21.168 19.4062041,21.3237551 18.8008163,21.3237551 C18.2556735,21.3237551 17.8261224,21.1577143 17.5141224,20.8236735 C17.203102,20.4915918 17.0444082,20.0306939 17.0444082,19.444898 L17.0444082,16.7137959 C17.0444082,16.1882449 17.2177959,15.7557551 17.5621224,15.4241633 C17.9054694,15.0925714 18.3477551,14.9270204 18.8919184,14.9270204 C19.4488163,14.9270204 19.8764082,15.0803265 20.1746939,15.3879184 C20.4729796,15.696 20.6223673,16.1368163 20.6223673,16.7133061 L20.6223673,18.2635102 L20.6223673,18.2635102 Z" id="Shape"></path>
                    <path d="M18.8404898,15.9898776 C18.6465306,15.9898776 18.5084082,16.0442449 18.4241633,16.1578776 C18.3379592,16.2646531 18.2977959,16.4473469 18.2977959,16.7025306 L18.2977959,17.3172245 L19.3719184,17.3172245 L19.3719184,16.7025306 C19.3719184,16.4473469 19.3288163,16.2641633 19.2435918,16.1578776 C19.1617959,16.0447347 19.0251429,15.9898776 18.8404898,15.9898776 Z" id="Shape"></path>
                    <path d="M14.6493061,15.9693061 C14.563102,15.9693061 14.4759184,15.9884082 14.3921633,16.0280816 C14.3069388,16.0667755 14.2236735,16.1309388 14.1413878,16.2142041 L14.1413878,20.0017959 C14.2388571,20.0997551 14.3353469,20.1751837 14.4293878,20.2182857 C14.5229388,20.2599184 14.6199184,20.2834286 14.7232653,20.2834286 C14.8726531,20.2834286 14.9813878,20.2403265 15.0514286,20.1531429 C15.1204898,20.0669388 15.1557551,19.9293061 15.1557551,19.7348571 L15.1557551,16.5947755 C15.1557551,16.3880816 15.1146122,16.2333061 15.0284082,16.1270204 C14.9392653,16.0222041 14.812898,15.9693061 14.6493061,15.9693061 Z" id="Shape"></path>
                    <polygon id="Shape" points="6.78759184 9.25616327 8.3275102 9.25616327 8.3275102 5.48963265 10.1206531 0.176326531 8.55526531 0.176326531 7.60212245 3.80571429 7.50514286 3.80571429 6.5044898 0.176326531 4.95330612 0.176326531 6.78759184 5.65910204"></polygon>
                    <path d="M12.2071837,9.42514286 C12.8292245,9.42514286 13.3170612,9.26204082 13.6726531,8.93583673 C14.0257959,8.60816327 14.2026122,8.16097959 14.2026122,7.58791837 L14.2026122,4.128 C14.2026122,3.61812245 14.0218776,3.19836735 13.6618776,2.87461224 C13.2994286,2.55183673 12.835102,2.38922449 12.268898,2.38922449 C11.6468571,2.38922449 11.1516735,2.54302041 10.7833469,2.85012245 C10.416,3.15722449 10.2313469,3.56914286 10.2313469,4.08979592 L10.2313469,7.56146939 C10.2313469,8.13110204 10.411102,8.58171429 10.7701224,8.91967347 C11.1291429,9.25616327 11.6091429,9.42514286 12.2071837,9.42514286 Z M11.64,4.03885714 C11.64,3.89338776 11.6924082,3.77583673 11.7947755,3.6837551 C11.9010612,3.59363265 12.0357551,3.55004082 12.2032653,3.55004082 C12.384,3.55004082 12.530449,3.59363265 12.6421224,3.6837551 C12.7533061,3.77583673 12.8086531,3.89338776 12.8086531,4.03885714 L12.8086531,7.68832653 C12.8086531,7.86710204 12.7542857,8.00914286 12.6440816,8.1115102 C12.5348571,8.21436735 12.3879184,8.26481633 12.2032653,8.26481633 C12.0225306,8.26481633 11.8829388,8.21583673 11.7849796,8.11297959 C11.6884898,8.01257143 11.6395102,7.8715102 11.6395102,7.68783673 L11.6395102,4.03885714 L11.64,4.03885714 Z" id="Shape"></path>
                    <path d="M16.2680816,9.35412245 C16.5252245,9.35412245 16.7892245,9.28065306 17.0610612,9.13959184 C17.3358367,8.99657143 17.5988571,8.78742857 17.8491429,8.51461224 L17.8491429,9.25665306 L19.2171429,9.25665306 L19.2171429,2.55869388 L17.8491429,2.55869388 L17.8491429,7.64277551 C17.7217959,7.7882449 17.5802449,7.9077551 17.4284082,8.00277551 C17.2736327,8.09681633 17.1462857,8.14383673 17.0458776,8.14383673 C16.917551,8.14383673 16.8230204,8.10857143 16.7676735,8.03559184 C16.7113469,7.96555102 16.6795102,7.85093878 16.6795102,7.69371429 L16.6795102,2.55869388 L15.3134694,2.55869388 L15.3134694,8.15657143 C15.3134694,8.5557551 15.3937959,8.85404082 15.5524898,9.05191837 C15.7141224,9.25273469 15.9502041,9.35412245 16.2680816,9.35412245 Z" id="Shape"></path>
                </g>
            </g>
        </g>
    </g>
</svg>