<?xml version="1.0" encoding="UTF-8"?>
<svg width="134px" height="51px" viewBox="0 0 134 51" version="1.1" xmlns="http://www.w3.org/2000/svg" xmlns:xlink="http://www.w3.org/1999/xlink">
    <!-- Generator: Sketch 44.1 (41455) - http://www.bohemiancoding.com/sketch -->
    <title>logotype_dark</title>
    <desc>Created with Sketch.</desc>
    <defs></defs>
    <g id="Branding-Assets" stroke="none" stroke-width="1" fill="none" fill-rule="evenodd">
        <g id="Home-Page" transform="translate(-130.000000, -2401.000000)" fill="#04092B">
            <g id="logotype_dark" transform="translate(130.000000, 2401.000000)">
                <path d="M25.2818867,12.2420041 L21.2660372,12.2420041 L21.2660372,24.0529161 L16.7232296,24.0529161 L16.7232296,12.2420041 L13.7326876,12.2420041 L13.7326876,8.34820645 L16.7232296,8.34820645 L16.7232296,6.7820129 C16.7232296,3.57783695 18.2326566,5.98240471e-05 22.8183027,5.98240471e-05 C23.3308823,5.98240471e-05 24.4986389,0.0431331378 25.4243358,0.344945455 L25.4243358,4.09501584 C24.9400681,3.95143812 24.1425903,3.93693079 24.0287496,3.93693079 C22.2201942,3.93693079 21.2518071,4.79914487 21.2518071,6.53763167 L21.2518071,8.34820645 L25.2818867,8.34820645 L25.2818867,12.2420041 Z" id="Fill-1"></path>
                <path d="M54.2784046,15.3312431 C54.2784046,13.578249 53.4524666,12.2851522 51.5726126,12.2851522 C49.6502166,12.2851522 48.76721,13.7219762 48.76721,15.3312431 L48.76721,24.0529909 L44.2386325,24.0529909 L44.2386325,8.34813167 L48.7387498,8.34813167 L48.7387498,10.3884308 L48.78144,10.3884308 C49.9776569,8.27634282 52.58369,8.03196158 53.1817985,8.03196158 C57.1407277,8.03196158 58.8212122,11.0494865 58.8212122,14.282378 L58.8212122,24.0529909 L54.2784046,24.0529909 L54.2784046,15.3312431 Z" id="Fill-3"></path>
                <path d="M11.4495588,33.4307842 C11.3784084,32.2956229 10.4242513,30.686356 8.13142832,30.686356 C6.09504336,30.686356 4.91305664,32.3962768 4.75637743,33.4307842 L11.4495588,33.4307842 Z M4.64253673,36.4768751 C4.92728673,38.4310276 6.57916283,39.5661889 8.4732469,39.5661889 C9.81191283,39.5661889 11.2644195,38.7471977 11.7771473,37.4683091 L15.522477,38.7615554 C14.4827912,41.7789308 11.6204681,43.4025554 8.54439735,43.4025554 C3.83082876,43.4025554 -2.96460177e-05,40.0546522 -2.96460177e-05,35.1837783 C-2.96460177e-05,30.6289249 3.77376018,26.9650012 8.24541726,26.9650012 C12.8878354,26.9650012 16.0208265,30.1691771 16.0208265,34.8245349 C16.0208265,35.3705789 16.0208265,35.9308311 15.9496761,36.4768751 L4.64253673,36.4768751 Z" id="Fill-5"></path>
                <path d="M31.8867082,34.2785208 L31.8867082,43.0576997 L27.3581308,43.0576997 L27.3581308,34.3359519 C27.3581308,32.6405384 26.6888719,31.289861 24.823248,31.289861 C22.9577723,31.289861 22.0320754,32.5398845 22.0320754,34.3359519 L22.0320754,43.0576997 L17.503498,43.0576997 L17.503498,27.3528405 L21.960925,27.3528405 L21.960925,29.4076469 L22.0036153,29.4076469 C22.9150821,27.8270956 24.7947878,26.9937466 26.5606529,26.9937466 C28.4262768,26.9937466 30.220602,27.769515 31.1034604,29.4937935 C32.5701971,27.8414534 34.0370821,26.9937466 36.2870666,26.9937466 C40.1035467,26.9937466 41.755571,29.6662364 41.755571,33.2440135 L41.755571,43.0576997 L37.2127635,43.0576997 L37.2127635,34.2785208 C37.2127635,32.5686 36.5433564,31.289861 34.6778808,31.289861 C32.8408653,31.289861 31.8867082,32.4968111 31.8867082,34.2785208" id="Fill-8"></path>
                <path d="M52.3381024,39.1925578 C54.4742462,39.1925578 56.1830427,37.5689331 56.1830427,35.1837484 C56.1830427,32.8129214 54.4600162,31.1892968 52.3238723,31.1892968 C50.2019586,31.1892968 48.4931622,32.8129214 48.4931622,35.1837484 C48.4931622,37.5689331 50.2161887,39.1925578 52.3381024,39.1925578 L52.3381024,39.1925578 Z M48.5643126,29.2927249 L48.621233,29.2927249 C50.1308082,27.266634 52.3238723,27.0367601 53.3918701,27.0367601 C57.9773679,27.0367601 60.7971489,31.2036545 60.7971489,35.1837484 C60.7971489,39.2499889 57.8066069,43.3594522 53.2637993,43.3594522 C52.1529631,43.3594522 50.1165781,43.1152205 48.6639232,41.3191531 L48.6070029,41.3191531 L48.6070029,50.8166692 L44.0641954,50.8166692 L44.0641954,27.3529302 L48.5643126,27.3529302 L48.5643126,29.2927249 Z" id="Fill-10"></path>
                <polygon id="Fill-12" points="62.3083695 43.0577595 66.8655553 43.0577595 66.8655553 19.0766921 62.3083695 19.0766921"></polygon>
                <path d="M76.8642084,39.1925578 C79.0003522,39.1925578 80.7091487,37.5689331 80.7091487,35.1837484 C80.7091487,32.8129214 78.9861221,31.174939 76.8499783,31.174939 C74.7280646,31.174939 73.0192681,32.8129214 73.0192681,35.1837484 C73.0192681,37.5689331 74.7422947,39.1925578 76.8642084,39.1925578 M76.8926686,26.979329 C81.5921553,26.979329 85.3659451,30.47081 85.3659451,35.1550328 C85.3659451,39.8821795 81.535235,43.4025255 76.8357482,43.4025255 C72.1362615,43.4025255 68.3624717,39.9541179 68.3624717,35.2411795 C68.3624717,30.5427484 72.1931819,26.979329 76.8926686,26.979329" id="Fill-14"></path>
                <polygon id="Fill-15" points="90.9499949 41.3909419 84.3992626 27.3529302 89.3977294 27.3529302 93.2997383 36.3332674 96.7743998 27.3529302 101.459656 27.3529302 92.0037626 50.8023114 87.1477449 50.8023114"></polygon>
                <path d="M112.042217,33.4307842 C111.971067,32.2956229 111.01691,30.686356 108.724087,30.686356 C106.687702,30.686356 105.505715,32.3962768 105.349036,33.4307842 L112.042217,33.4307842 Z M105.235195,36.4768751 C105.519945,38.4310276 107.171821,39.5661889 109.065906,39.5661889 C110.404571,39.5661889 111.857078,38.7471977 112.369806,37.4683091 L116.115136,38.7615554 C115.07545,41.7789308 112.213127,43.4025554 109.137056,43.4025554 C104.423487,43.4025554 100.592629,40.0546522 100.592629,35.1837783 C100.592629,30.6289249 104.366419,26.9650012 108.838076,26.9650012 C113.480494,26.9650012 116.613485,30.1691771 116.613485,34.8245349 C116.613485,35.3705789 116.613485,35.9308311 116.542335,36.4768751 L105.235195,36.4768751 Z" id="Fill-16"></path>
                <path d="M125.615335,31.1892968 C123.479192,31.1892968 121.756165,32.8129214 121.756165,35.1837484 C121.756165,37.5689331 123.479192,39.1925578 125.601105,39.1925578 C127.737249,39.1925578 129.460276,37.5689331 129.460276,35.1837484 C129.460276,32.8129214 127.751479,31.1892968 125.615335,31.1892968 L125.615335,31.1892968 Z M129.460276,41.0604141 L129.403355,41.0604141 C127.950849,43.2157249 125.601105,43.3594522 124.561568,43.3594522 C120.04722,43.3594522 117.142059,39.4224317 117.142059,35.1837484 C117.142059,31.2036545 120.146831,27.0367601 124.632718,27.0367601 C125.515725,27.0367601 127.694411,27.2235607 129.275136,29.1489977 L129.332205,29.1489977 L129.332205,19.0910798 L133.875012,19.0910798 L133.875012,43.0576399 L129.460276,43.0576399 L129.460276,41.0604141 Z" id="Fill-17"></path>
                <path d="M42.715435,16.3442287 C42.715435,21.3749824 40.1310434,24.5728768 34.840415,24.5728768 C29.4156385,24.5728768 27.0263177,21.2641584 27.0263177,16.4918446 L27.0263177,14.0879648 L31.073592,14.0879648 L31.0614372,16.393434 C31.0614372,19.3085103 32.7315456,20.6614311 34.864873,20.6614311 C37.3395743,20.6614311 38.7170765,18.9887507 38.7170765,16.4918446 L38.7170765,14.2194282 L42.7275898,14.2194282 L42.715435,16.3442287 Z" id="Fill-18"></path>
                <path d="M31.2548033,10.6252144 C31.2548033,11.7861 30.3221396,12.7271323 29.1715777,12.7271323 C28.0210157,12.7271323 27.088352,11.7861 27.088352,10.6252144 C27.088352,9.46432874 28.0210157,8.52329648 29.1715777,8.52329648 C30.3221396,8.52329648 31.2548033,9.46432874 31.2548033,10.6252144" id="Fill-19"></path>
                <path d="M42.7124852,10.6252144 C42.7124852,11.7861 41.7798215,12.7271323 40.6292595,12.7271323 C39.4786976,12.7271323 38.5460338,11.7861 38.5460338,10.6252144 C38.5460338,9.46432874 39.4786976,8.52329648 40.6292595,8.52329648 C41.7798215,8.52329648 42.7124852,9.46432874 42.7124852,10.6252144" id="Fill-20"></path>
            </g>
        </g>
    </g>
</svg>